# xmcd
#
# Track frame offsets:
#	180
#	14812
#	22864
#	36315
#	46514
#	60828
#	75182
#	94470
#	108328
#	125275
#
# Disc length: 1873 seconds
#
# Revision: 0
# Processed by: cddbd v1.5.1PL0 Copyright (c) Steve Scherf et al.
# Submitted via: audiograbber 1.83.01
#
DISCID=6b074f0a
DTITLE=Λαυρέντης Μαχαιρίτσας-Γιάννης Κότσιρας - Εφάπαξ
DYEAR=1900
DGENRE=Rock
TTITLE0=Γιάννης Κότσιρας - Εφάπαξ
TTITLE1=Λ.Μαχαιρίτσας - Νύχτα στην κεντρική αγορά
TTITLE2=Λ.Μαχαιρίτσας - Ελεύθερο και ματζόρε
TTITLE3=Λ.Μαχαιρίτσας - Fashion Theme
TTITLE4=Γιάννης Κότσιρας - Εφάπαξ  Reggae
TTITLE5=Λ.Μαχαιρίτσας - Το τσιγάρο
TTITLE6=Λ.Μαχαιρίτσας - Τίποτα
TTITLE7=λ.Μαχαιρίτσας - Ένας έρωτας φτηνός
TTITLE8=Λ.Μαχαιρίτσας - Φύλακας ζωής
TTITLE9=Λ.Μαχαιρίτσας - Λέει,λέει
EXTD=
EXTT0=
EXTT1=
EXTT2=
EXTT3=
EXTT4=
EXTT5=
EXTT6=
EXTT7=
EXTT8=
EXTT9=
PLAYORDER=
